# xmcd
#
# Track frame offsets: 
#        150
#        7324
#        19539
#        28179
#        44674
#        51547
#        64105
#        76720
#        87869
#        94734
#
# Disc length: 1531 seconds
#
# Revision: 0
# Processed by: cddbd v1.5.2PL0 Copyright (c) Steve Scherf et al.
# Submitted via: ExactAudioCopy v0.95b4
#
DISCID=7d05f90a
DTITLE=JD Sumner and The Stamps - Gonna Build A Mountain
DYEAR=2005
DGENRE=Gospel
TTITLE0=Gonna Build A Mountain
TTITLE1=Blessed Assurance
TTITLE2=Blessed Jesus Hold My Hand
TTITLE3=Each Step I Take
TTITLE4=I Feel Like Traveling On
TTITLE5=That Is Why Jesus Died For You and Me
TTITLE6=His Name Is Wonderful
TTITLE7=I Am Wholy Thine
TTITLE8=My Heart Is Reserved For The Lord
TTITLE9=Steal Away
EXTD=
EXTT0=
EXTT1=
EXTT2=
EXTT3=
EXTT4=
EXTT5=
EXTT6=
EXTT7=
EXTT8=
EXTT9=
PLAYORDER=
